<?xml version="1.0" standalone="no"?>
<!DOCTYPE svg PUBLIC "-//W3C//DTD SVG 20010904//EN"
 "http://www.w3.org/TR/2001/REC-SVG-20010904/DTD/svg10.dtd">
<svg version="1.0" xmlns="http://www.w3.org/2000/svg"
 width="300.000000pt" height="300.000000pt" viewBox="0 0 300.000000 300.000000"
 preserveAspectRatio="xMidYMid meet">
<metadata>
Created by potrace 1.14, written by Peter Selinger 2001-2017
</metadata>
<g transform="translate(0.000000,300.000000) scale(0.100000,-0.100000)"
fill="#000000" stroke="none">
<path d="M59 2055 c-1 -14 -1 -36 -1 -50 0 -77 -3 -74 56 -74 69 0 92 19 89
71 -4 67 -16 78 -83 78 -57 0 -60 -1 -61 -25z m91 -49 c0 -37 -3 -44 -22 -48
-21 -4 -23 -1 -23 44 0 43 2 48 23 48 19 0 22 -5 22 -44z"/>
<path d="M230 2066 c0 -9 5 -16 10 -16 11 0 14 -73 3 -84 -21 -20 -10 -36 26
-36 44 0 55 8 40 26 -10 12 -9 65 2 104 3 11 -6 16 -38 18 -34 2 -43 0 -43
-12z"/>
<path d="M362 2068 c-33 -33 5 -91 54 -82 19 3 24 0 24 -16 0 -19 -1 -20 -37
-5 -49 21 -73 13 -48 -15 14 -15 29 -20 64 -18 51 2 71 15 71 48 0 30 -23 50
-58 50 -22 0 -31 6 -35 21 -4 16 -3 18 8 9 8 -7 19 -9 25 -5 5 3 10 1 10 -4 0
-6 11 -11 25 -11 14 0 25 4 25 8 0 19 -27 32 -70 32 -25 0 -51 -5 -58 -12z"/>
<path d="M520 2065 c0 -15 9 -19 45 -16 13 1 16 -1 9 -6 -13 -9 -17 -30 -15
-80 1 -28 5 -33 26 -33 24 0 25 3 25 60 0 33 3 59 8 59 20 -3 32 2 32 16 0 12
-14 15 -65 15 -51 0 -65 -3 -65 -15z"/>
<path d="M680 2004 c0 -72 1 -74 25 -74 24 0 25 2 25 65 0 57 2 64 18 58 34
-13 43 -43 12 -43 -26 0 -25 -14 1 -51 13 -18 29 -29 44 -29 22 0 24 2 13 25
-6 13 -15 22 -19 19 -5 -3 -9 0 -9 5 0 6 7 11 15 11 8 0 15 3 16 8 0 4 2 16 4
27 7 36 -22 54 -86 54 l-59 -1 0 -74z"/>
<path d="M903 2068 c-9 -12 -53 -122 -53 -133 0 -9 39 -5 45 4 7 12 65 11 65
-1 0 -11 37 -11 44 1 3 4 -6 38 -21 75 -21 53 -31 66 -48 66 -13 0 -27 -6 -32
-12z m21 -24 c3 -8 2 -12 -4 -9 -6 3 -10 10 -10 16 0 14 7 11 14 -7z m16 -45
c0 -6 -8 -18 -17 -27 -16 -16 -16 -16 -10 1 4 10 7 25 7 33 0 9 5 12 10 9 6
-3 10 -11 10 -16z"/>
<path d="M1022 2063 c2 -10 11 -17 20 -15 14 2 17 -6 16 -45 -1 -71 0 -73 28
-73 25 0 26 1 22 60 -2 36 1 59 7 59 24 -3 35 2 35 16 0 12 -14 15 -66 15 -57
0 -65 -2 -62 -17z"/>
<path d="M1180 2061 c13 -25 13 -98 0 -106 -19 -11 1 -25 35 -25 38 0 52 14
36 34 -12 14 -9 66 4 99 6 15 1 17 -39 17 -43 0 -46 -2 -36 -19z"/>
<path d="M1299 2066 c8 -10 9 -16 1 -21 -5 -3 -10 -31 -10 -61 0 -52 2 -55 23
-52 17 2 22 9 22 31 -1 35 11 34 30 -3 11 -21 23 -30 40 -30 29 0 27 -5 29 83
2 64 0 67 -21 67 -19 0 -23 -5 -23 -33 0 -18 5 -38 12 -45 6 -6 9 -14 7 -17
-3 -2 -18 18 -34 45 -24 42 -34 50 -58 50 -24 0 -27 -3 -18 -14z"/>
<path d="M1485 2060 c-17 -19 -15 -90 4 -113 9 -11 30 -16 70 -16 l58 1 0 42
c1 41 0 42 -31 41 -20 -1 -32 -7 -34 -18 -2 -10 3 -17 11 -17 7 0 14 -7 14
-15 0 -16 -9 -19 -21 -7 -4 4 -13 7 -19 7 -6 0 -12 21 -13 46 -2 44 -1 46 22
41 13 -2 24 -7 24 -11 0 -4 11 -7 25 -7 28 0 29 0 15 27 -9 16 -20 19 -60 18
-32 -2 -55 -8 -65 -19z"/>
<path d="M1728 2068 c-2 -7 -4 -40 -3 -73 1 -54 4 -60 23 -63 19 -3 22 1 22
35 l0 38 22 -37 c17 -30 28 -38 51 -38 26 0 28 2 16 17 -10 11 -10 14 -1 9 9
-5 12 9 12 58 0 62 -1 66 -23 66 -20 0 -23 -5 -22 -36 1 -19 7 -40 14 -47 6
-6 11 -16 11 -21 0 -6 -17 15 -36 47 -27 43 -41 57 -59 57 -12 0 -25 -6 -27
-12z"/>
<path d="M1907 2023 c1 -32 2 -65 2 -74 1 -13 14 -16 65 -17 55 -1 65 1 69 18
7 27 -26 35 -58 14 -24 -16 -25 -15 -25 4 0 14 8 22 22 24 32 5 35 28 4 28
-24 0 -33 17 -27 53 0 4 -11 7 -26 7 -28 0 -28 -1 -26 -57z"/>
<path d="M1965 2070 c-9 -15 57 -41 72 -28 21 17 3 38 -32 38 -19 0 -37 -5
-40 -10z"/>
<path d="M2070 2065 c0 -15 8 -18 45 -16 11 0 14 -2 8 -5 -8 -4 -13 -26 -13
-60 0 -51 1 -54 25 -54 22 0 25 4 26 38 1 20 0 47 -1 60 -1 12 2 22 7 21 21
-4 33 2 33 16 0 12 -14 15 -65 15 -51 0 -65 -3 -65 -15z"/>
<path d="M2220 2067 c0 -7 9 -41 21 -75 17 -52 25 -62 44 -62 17 0 24 7 29 31
3 17 3 36 -1 42 -3 5 -1 7 4 4 6 -4 14 -23 17 -42 5 -27 12 -35 29 -35 24 0
36 21 61 103 14 47 14 47 -9 47 -18 0 -25 -7 -30 -32 l-7 -31 -14 31 c-10 24
-19 32 -38 32 -18 0 -24 -4 -20 -15 3 -8 -1 -24 -9 -35 -14 -20 -15 -20 -21
14 -6 30 -11 36 -31 36 -14 0 -25 -6 -25 -13z"/>
<path d="M2467 2060 c-16 -24 -15 -93 2 -114 16 -19 97 -19 116 1 18 18 20
104 3 121 -7 7 -33 12 -59 12 -37 0 -51 -5 -62 -20z m83 -58 c0 -44 -23 -64
-39 -34 -8 17 -8 34 4 79 5 21 7 22 20 9 8 -8 15 -32 15 -54z"/>
<path d="M2635 2008 c0 -71 1 -73 27 -76 23 -3 26 0 24 23 -2 14 1 28 5 31 5
3 9 0 9 -6 0 -7 7 -9 16 -6 8 3 13 2 9 -3 -10 -18 7 -41 31 -41 28 0 30 7 9
37 -13 19 -13 22 0 27 19 7 20 60 1 75 -8 7 -27 11 -42 9 -33 -4 -45 -28 -14
-28 16 0 21 -5 18 -22 -2 -11 -11 -22 -20 -24 -18 -2 -20 4 -21 54 -1 17 -7
22 -27 22 -25 0 -25 -1 -25 -72z"/>
<path d="M2814 2008 c1 -68 3 -73 24 -76 21 -3 28 7 22 33 -1 6 2 7 6 3 4 -4
13 -3 21 4 8 6 13 7 12 2 -6 -32 2 -44 32 -44 l31 0 -25 43 c-23 43 -23 44 -5
66 10 13 18 27 18 32 0 11 -50 12 -50 2 0 -5 -9 -19 -20 -33 l-19 -25 2 30 c2
25 -2 30 -24 33 -26 3 -26 3 -25 -70z m53 -20 c-3 -8 -6 -5 -6 6 -1 11 2 17 5
13 3 -3 4 -12 1 -19z"/>
<path d="M1181 1834 c-15 -6 -35 -24 -46 -40 -17 -27 -19 -52 -18 -331 0 -265
2 -305 17 -327 37 -57 39 -57 365 -57 291 0 303 1 331 21 17 12 35 31 42 43
17 32 16 594 -1 636 -27 65 -34 66 -364 66 -202 0 -308 -3 -326 -11z m383 -87
c-3 -9 -10 -14 -15 -11 -5 3 -25 -11 -45 -30 -36 -35 -37 -36 -31 -102 4 -52
2 -67 -10 -71 -21 -8 -37 12 -28 34 5 10 9 40 11 67 2 41 8 54 38 83 20 20 36
41 36 48 0 7 6 15 13 18 18 7 39 -17 31 -36z m-226 -30 c7 -8 7 -18 2 -27 -6
-8 -10 -34 -10 -58 0 -44 28 -85 78 -111 24 -13 26 -19 14 -39 -10 -15 -42 -6
-42 12 0 7 -16 27 -35 46 -31 30 -35 40 -35 84 0 28 -4 58 -10 66 -9 14 4 40
20 40 4 0 12 -6 18 -13z m419 -58 c6 -6 9 -17 6 -25 -4 -10 -20 -12 -69 -7
-64 6 -66 5 -99 -27 -19 -19 -35 -39 -35 -46 0 -14 -20 -23 -37 -16 -22 7 -14
31 15 46 15 9 39 28 55 44 22 23 34 28 61 25 19 -2 44 1 57 6 32 13 33 13 46
0z m-537 -139 c0 -5 17 -28 37 -51 36 -40 39 -41 88 -36 27 2 57 6 65 8 20 5
26 -37 6 -44 -9 -4 -18 -2 -21 3 -4 6 -29 10 -57 10 -43 0 -56 5 -88 33 -20
17 -45 37 -55 43 -12 6 -16 16 -12 27 7 18 37 24 37 7z m394 2 c2 -4 27 -7 55
-6 46 0 54 -3 88 -38 20 -21 43 -38 50 -38 17 0 17 -36 -1 -43 -14 -6 -36 10
-36 26 0 6 -15 24 -32 41 -26 25 -41 31 -73 30 -22 -1 -48 -4 -58 -9 -22 -9
-42 8 -34 29 7 17 32 22 41 8z m10 -99 c8 -16 27 -39 41 -52 21 -19 25 -32 25
-76 0 -30 4 -56 10 -60 14 -9 0 -35 -20 -35 -21 0 -32 21 -19 41 5 8 9 33 9
55 0 36 -6 47 -39 77 -21 19 -44 36 -51 39 -18 6 -5 38 14 38 9 0 22 -12 30
-27z m-62 -69 c-5 -11 -9 -39 -8 -64 1 -39 -3 -49 -32 -74 -19 -17 -38 -40
-43 -54 -6 -15 -15 -22 -26 -20 -27 5 -28 37 -1 47 13 5 36 23 52 40 28 29 29
33 23 95 -6 67 4 87 31 61 10 -9 11 -18 4 -31z m-75 19 c4 -10 1 -19 -7 -21
-7 -3 -32 -22 -54 -42 -37 -34 -48 -38 -113 -43 -55 -4 -73 -3 -77 8 -6 18 20
39 36 29 7 -5 32 -9 56 -10 38 -2 49 2 76 29 18 18 36 40 39 50 8 22 36 22 44
0z"/>
<path d="M0 936 c0 -20 5 -26 21 -26 15 0 20 5 17 22 -5 34 -38 37 -38 4z"/>
<path d="M100 945 c-10 -12 -9 -15 6 -15 16 0 17 -2 4 -10 -13 -8 -12 -10 3
-10 9 0 17 7 17 15 0 8 -6 15 -12 15 -9 0 -8 4 2 10 8 5 10 10 4 10 -6 0 -17
-7 -24 -15z"/>
<path d="M190 940 c-9 -16 -8 -22 5 -26 9 -4 19 -4 22 0 4 3 1 6 -5 6 -7 0
-12 7 -12 16 0 10 5 14 16 10 8 -3 12 -2 9 4 -10 16 -23 12 -35 -10z"/>
<path d="M348 951 c5 -3 12 -15 15 -26 4 -19 5 -19 6 2 0 12 7 23 14 26 6 2
-1 4 -17 4 -15 0 -24 -2 -18 -6z"/>
<path d="M442 948 c-13 -13 2 -38 23 -38 18 0 26 25 12 39 -14 14 -20 14 -35
-1z m28 -13 c0 -8 -4 -15 -10 -15 -5 0 -10 7 -10 15 0 8 5 15 10 15 6 0 10 -7
10 -15z"/>
<path d="M541 940 c-1 -18 4 -26 17 -26 10 0 18 8 18 18 0 11 -6 16 -12 14 -7
-3 -15 0 -18 7 -2 7 -5 1 -5 -13z"/>
<path d="M637 939 c-5 -20 17 -39 30 -25 4 3 0 6 -8 6 -11 0 -11 2 1 10 11 7
11 10 2 10 -7 0 -10 5 -7 10 3 6 2 10 -3 10 -5 0 -12 -9 -15 -21z"/>
<path d="M730 935 c0 -23 3 -27 10 -15 8 12 12 13 19 2 6 -10 10 -8 14 8 4 15
2 20 -8 17 -7 -3 -18 0 -24 6 -8 8 -11 3 -11 -18z"/>
<path d="M920 951 c0 -7 6 -18 13 -26 11 -11 16 -9 26 7 11 18 11 20 -2 15 -8
-3 -20 0 -26 6 -8 8 -11 8 -11 -2z"/>
<path d="M1020 933 c0 -21 3 -24 9 -14 5 8 7 20 4 28 -8 21 -13 15 -13 -14z"/>
<path d="M1091 950 c0 -3 4 -14 9 -25 8 -19 9 -19 9 2 1 12 7 23 14 26 6 3 2
4 -10 4 -13 -1 -23 -4 -22 -7z"/>
<path d="M1180 935 c0 -23 3 -27 10 -15 9 13 11 13 20 0 7 -12 10 -8 10 15 0
23 -3 27 -10 15 -9 -13 -11 -13 -20 0 -7 12 -10 8 -10 -15z"/>
<path d="M1346 944 c-12 -32 21 -47 43 -20 10 12 8 17 -8 25 -26 14 -28 14
-35 -5z m34 -15 c0 -5 -7 -9 -15 -9 -9 0 -12 6 -9 15 6 15 24 11 24 -6z"/>
<path d="M1452 935 c0 -16 2 -22 5 -12 2 9 2 23 0 30 -3 6 -5 -1 -5 -18z"/>
<path d="M1520 950 c-12 -8 -12 -10 4 -16 14 -5 15 -9 4 -15 -10 -7 -9 -9 5
-9 9 0 17 7 17 15 0 8 -6 15 -12 15 -9 0 -8 4 2 10 8 5 11 10 5 10 -5 0 -17
-4 -25 -10z"/>
<path d="M1610 948 c0 -7 5 -20 11 -28 9 -12 10 -11 6 7 -3 12 0 24 7 27 6 2
3 5 -6 5 -10 1 -18 -5 -18 -11z"/>
<path d="M1699 958 c-10 -34 -7 -47 11 -45 23 1 33 34 13 41 -16 6 -23 7 -24
4z"/>
<path d="M1801 942 c-14 -27 -14 -28 9 -28 21 0 25 12 11 35 -7 11 -11 10 -20
-7z"/>
<path d="M1893 940 c2 -11 7 -23 12 -27 4 -5 6 2 3 14 -3 12 -1 24 6 27 6 2 3
5 -6 5 -12 1 -17 -5 -15 -19z"/>
<path d="M1979 958 c-5 -19 -8 -50 -4 -46 7 7 15 48 9 48 -2 0 -4 -1 -5 -2z"/>
<path d="M2151 951 c-18 -12 -6 -43 16 -39 9 2 18 10 20 18 4 12 3 13 -5 1 -6
-8 -15 -10 -22 -6 -10 6 -9 11 5 22 21 14 8 18 -14 4z"/>
<path d="M2310 935 c0 -21 2 -24 14 -13 7 7 11 19 9 25 -9 22 -23 14 -23 -12z"/>
<path d="M2401 942 c-1 -24 24 -41 39 -26 4 5 4 18 0 29 -8 19 -9 19 -9 -2 -1
-13 -5 -23 -10 -23 -5 0 -12 10 -14 23 l-4 22 -2 -23z"/>
<path d="M2528 942 c-4 -12 -2 -24 2 -27 13 -8 18 8 10 29 -6 19 -7 19 -12 -2z"/>
<path d="M2604 945 c-8 -19 4 -35 24 -34 15 1 15 2 -1 6 -20 5 -17 30 2 25 7
-1 10 2 6 8 -9 15 -25 12 -31 -5z"/>
<path d="M2697 948 c6 -7 13 -20 17 -28 3 -8 4 -5 2 7 -2 12 1 24 8 27 6 2 0
5 -13 5 -17 1 -21 -2 -14 -11z"/>
<path d="M2861 951 c-19 -12 -6 -41 19 -41 16 0 21 5 18 22 -3 25 -17 32 -37
19z m29 -21 c0 -5 -7 -10 -15 -10 -8 0 -15 5 -15 10 0 6 7 10 15 10 8 0 15 -4
15 -10z"/>
<path d="M2961 934 c0 -16 3 -23 6 -16 4 10 8 10 19 1 11 -9 14 -7 14 11 0 13
-3 20 -7 17 -3 -4 -12 -2 -20 4 -10 9 -13 6 -12 -17z"/>
<path d="M897 930 c3 -11 9 -20 14 -20 11 0 11 3 3 24 -9 23 -23 20 -17 -4z"/>
<path d="M2043 928 c-2 -16 1 -17 13 -8 11 10 14 10 14 1 0 -7 5 -9 10 -6 19
11 10 33 -13 33 -16 0 -23 -7 -24 -20z"/>
<path d="M2500 928 c0 -19 2 -20 10 -8 13 19 13 30 0 30 -5 0 -10 -10 -10 -22z"/>
<path d="M2780 943 c0 -5 5 -15 10 -23 7 -12 9 -10 7 8 -1 19 -17 33 -17 15z"/>
</g>
</svg>
